<svg xmlns="http://www.w3.org/2000/svg" version="1.1" xmlns:xlink="http://www.w3.org/1999/xlink" xmlns:svgjs="http://svgjs.dev/svgjs" width="128" height="128" viewBox="0 0 128 128"><g transform="matrix(0.8046875,0,0,0.8046875,12.221578124999994,35.606475323629965)"><svg viewBox="0 0 96 53" data-background-color="#000000" preserveAspectRatio="xMidYMid meet" height="70" width="128" xmlns="http://www.w3.org/2000/svg" xmlns:xlink="http://www.w3.org/1999/xlink"><g id="tight-bounds" transform="matrix(1,0,0,1,0.25950000000000273,0.2159044943820163)"><svg viewBox="0 0 95.48099999999998 52.56819101123596" height="52.56819101123596" width="95.48099999999998"><g><svg viewBox="0 0 95.48099999999998 52.56819101123596" height="52.56819101123596" width="95.48099999999998"><g><svg viewBox="0 0 95.48099999999998 52.56819101123596" height="52.56819101123596" width="95.48099999999998"><g id="textblocktransform"><svg viewBox="0 0 95.48099999999998 52.56819101123596" height="52.56819101123596" width="95.48099999999998" id="textblock"><g><svg viewBox="0 0 95.48099999999998 52.56819101123596" height="52.56819101123596" width="95.48099999999998"><g><svg viewBox="0 0 95.48099999999998 52.56819101123596" height="52.56819101123596" width="95.48099999999998"><g><svg xmlns="http://www.w3.org/2000/svg" xmlns:xlink="http://www.w3.org/1999/xlink" version="1.1" x="0" y="0" viewBox="1.39 20.99 87.22 48.02000000000001" enable-background="new 0 0 90 90" xml:space="preserve" height="52.56819101123596" width="95.48099999999998" class="icon-icon-0" data-fill-palette-color="accent" id="icon-0"><rect x="1.39" y="45.49" width="23.52" height="23.52" fill="#000000" data-fill-palette-color="accent"></rect><polygon points="43.294,33.24 25.263,44.51 2.604,44.51 20.638,33.24 " fill="#000000" data-fill-palette-color="accent"></polygon><polygon points="64.108,44.727 25.89,68.617 25.89,45.273 64.108,21.382 " fill="#000000" data-fill-palette-color="accent"></polygon><polygon points="64.728,45.49 87.394,45.49 69.36,56.76 46.704,56.76 " fill="#000000" data-fill-palette-color="accent"></polygon><rect x="65.089" y="20.99" width="23.521" height="23.52" fill="#000000" data-fill-palette-color="accent"></rect></svg></g></svg></g></svg></g></svg></g></svg></g></svg></g><defs></defs></svg><rect width="95.48099999999998" height="52.56819101123596" fill="none" stroke="none" visibility="hidden"></rect></g></svg></g></svg>